<svg width="286" height="116" viewBox="0 0 286 116" fill="none" xmlns="http://www.w3.org/2000/svg">
<path d="M11.232 103.5H9.36L21.888 2.69999H26.64L56.88 95.868L86.976 2.69999H91.728L104.256 103.5H92.304L82.368 22.86L56.304 103.5H47.232L20.88 23.868L11.232 103.5ZM122.968 104.076C121.72 104.076 120.616 103.644 119.656 102.78C118.792 101.82 118.36 100.716 118.36 99.468C118.36 98.124 118.792 97.02 119.656 96.156C120.52 95.292 121.576 94.86 122.824 94.86C124.168 94.86 125.272 95.34 126.136 96.3C127.096 97.164 127.576 98.22 127.576 99.468C127.576 100.716 127.096 101.82 126.136 102.78C125.272 103.644 124.216 104.076 122.968 104.076Z" fill="white"/>
<path d="M185.88 59C183.748 59 182.11 58.532 180.966 57.596C179.874 56.66 179.302 55.724 179.25 54.788L179.172 53.462V28.97C179.172 24.862 178.08 22.236 175.896 21.092C174.856 20.572 173.53 20.312 171.918 20.312C168.694 20.312 165.782 21.638 163.182 24.29C160.634 26.89 159.36 29.23 159.36 31.31V59H153.9V0.577999H159.36V28.892C160.192 26.656 161.778 24.576 164.118 22.652C166.458 20.676 169.084 19.688 171.996 19.688C177.04 19.688 180.394 20.572 182.058 22.34C183.774 24.056 184.632 26.292 184.632 29.048V53.462C184.632 54.97 184.918 56.14 185.49 56.972C186.114 57.752 186.712 58.168 187.284 58.22L188.22 58.376H190.638V59H185.88ZM202.894 59C200.762 59 199.124 58.532 197.98 57.596C196.888 56.66 196.316 55.724 196.264 54.788L196.186 53.462V20H201.646V53.462C201.646 54.97 201.932 56.14 202.504 56.972C203.128 57.752 203.726 58.168 204.298 58.22L205.234 58.376H207.652V59H202.894ZM196.654 11.264C196.03 10.64 195.718 9.86 195.718 8.924C195.718 7.988 196.03 7.208 196.654 6.584C197.278 5.908 198.058 5.57 198.994 5.57C199.93 5.57 200.71 5.908 201.334 6.584C202.01 7.208 202.348 7.988 202.348 8.924C202.348 9.86 202.01 10.64 201.334 11.264C200.71 11.888 199.93 12.2 198.994 12.2C198.058 12.2 197.278 11.888 196.654 11.264ZM218.622 0.499995V39.344L235.782 20H236.562L223.848 34.352L240.618 59H235.158L220.728 37.784L218.622 40.202V59H213.162V0.499995H218.622ZM200.154 72.97C200.154 69.798 199.738 67.562 198.906 66.262C198.074 64.962 196.488 64.312 194.148 64.312C191.028 64.312 188.246 65.612 185.802 68.212C183.41 70.812 182.214 73.152 182.214 75.232V103H176.754V72.97C176.754 69.798 176.338 67.562 175.506 66.262C174.674 64.962 172.906 64.312 170.202 64.312C167.498 64.312 164.924 65.56 162.48 68.056C160.088 70.552 158.788 72.866 158.58 74.998V103H153.12V64H158.58V72.814C159.412 70.578 160.946 68.498 163.182 66.574C165.418 64.65 167.914 63.688 170.67 63.688C173.426 63.688 175.61 63.948 177.222 64.468C178.886 64.936 180.056 65.69 180.732 66.73C181.408 67.77 181.824 68.68 181.98 69.46C182.136 70.24 182.214 71.332 182.214 72.736C183.046 70.5 184.554 68.446 186.738 66.574C188.922 64.65 191.262 63.688 193.758 63.688C196.254 63.688 198.256 63.896 199.764 64.312C201.272 64.728 202.39 65.196 203.118 65.716C203.898 66.236 204.47 66.99 204.834 67.978C205.25 68.966 205.484 69.772 205.536 70.396C205.588 71.02 205.614 71.904 205.614 73.048V97.462C205.614 98.97 205.9 100.14 206.472 100.972C207.096 101.752 207.72 102.168 208.344 102.22L209.202 102.376H211.62V103H206.862C204.73 103 203.092 102.532 201.948 101.596C200.856 100.66 200.284 99.724 200.232 98.788L200.154 97.462V72.97ZM219.285 83.968C219.285 90.416 220.403 95.148 222.639 98.164C224.927 101.18 227.917 102.688 231.609 102.688C236.809 102.688 241.437 101.908 245.493 100.348L245.727 100.894C241.567 102.506 236.861 103.312 231.609 103.312C226.409 103.312 222.171 101.752 218.895 98.632C215.619 95.512 213.981 90.702 213.981 84.202C213.981 77.702 215.697 72.658 219.129 69.07C222.561 65.482 226.929 63.688 232.233 63.688C236.497 63.688 240.085 64.962 242.997 67.51C245.909 70.058 247.365 73.828 247.365 78.82C247.365 79.08 247.365 79.34 247.365 79.6H219.519C219.363 81.004 219.285 82.46 219.285 83.968ZM242.061 78.976C242.009 73.984 241.047 70.292 239.175 67.9C237.303 65.508 234.885 64.312 231.921 64.312C228.957 64.312 226.305 65.612 223.965 68.212C221.677 70.812 220.221 74.4 219.597 78.976H242.061ZM252.515 64.624V64H254.153V56.2H259.613V64H271.547V64.624H259.613V93.016C259.613 96.396 259.977 98.84 260.705 100.348C261.485 101.856 263.071 102.61 265.463 102.61C267.907 102.61 270.377 102.116 272.873 101.128L273.107 101.752C270.507 102.74 267.517 103.234 264.137 103.234C260.809 103.234 258.313 102.558 256.649 101.206C254.985 99.802 254.153 97.046 254.153 92.938V64.624H252.515Z" fill="white"/>
</svg>
